# Blender v2.76 (sub 0) OBJ File: ''
# www.blender.org
o Cube.007_Cube.015
v -1.939798 3.483428 -1.412982
v -2.606465 4.150095 -1.412982
v -1.939798 4.150095 -0.746315
v -1.939798 3.483428 0.587018
v -2.606465 4.150095 0.587018
v -1.939798 4.150095 -0.079649
v -1.939798 2.150095 -0.746316
v -1.939798 2.816762 -1.412982
v -2.606465 2.150095 -1.412983
v -1.939798 2.816762 0.587017
v -2.606465 2.150095 0.587017
v -1.939798 2.150095 -0.079650
v -3.939798 2.150095 -0.079650
v -3.939798 2.816762 0.587017
v -3.273132 2.150095 0.587017
v -3.939798 2.150095 -0.746316
v -3.939798 2.816762 -1.412982
v -3.273132 2.150095 -1.412983
v -3.939798 3.483428 0.587018
v -3.939798 4.150095 -0.079649
v -3.273132 4.150095 0.587018
v -3.939798 3.483428 -1.412982
v -3.273132 4.150095 -1.412982
v -3.939798 4.150095 -0.746315
vt 0.145519 0.039139
vt 0.039139 0.145519
vt 0.000202 0.000202
vt 0.358279 0.649317
vt 0.397217 0.794635
vt 0.251899 0.755697
vt 0.397217 0.000202
vt 0.358279 0.145519
vt 0.251899 0.039139
vt 0.358279 0.542937
vt 0.251899 0.436558
vt 0.397217 0.397620
vt 0.000202 0.397620
vt 0.145519 0.436558
vt 0.039139 0.542937
vt 0.397217 0.397217
vt 0.251899 0.358279
vt 0.358279 0.251899
vt 0.039139 0.649317
vt 0.145519 0.755697
vt 0.000202 0.794635
vt 0.145519 0.358279
vt 0.000202 0.397217
vt 0.039139 0.251899
vt 0.774133 0.620632
vt 0.924576 0.620632
vt 0.999798 0.545410
vt 0.999798 0.394966
vt 0.924576 0.319744
vt 0.774133 0.319744
vt 0.698911 0.394966
vt 0.698911 0.545410
vt 0.623286 0.621035
vt 0.472842 0.621035
vt 0.397620 0.696257
vt 0.397620 0.846701
vt 0.472842 0.921923
vt 0.623286 0.921923
vt 0.698507 0.846701
vt 0.698507 0.696257
vt 0.610380 0.319341
vt 0.716759 0.212961
vt 0.716759 0.106581
vt 0.610380 0.000202
vt 0.504000 0.000202
vt 0.397620 0.106581
vt 0.397620 0.212961
vt 0.504000 0.319341
vt 0.623286 0.319744
vt 0.472842 0.319744
vt 0.397620 0.394966
vt 0.397620 0.545410
vt 0.472842 0.620632
vt 0.623286 0.620632
vt 0.698507 0.545410
vt 0.698507 0.394966
vn 0.577400 0.577400 -0.577400
vn 0.577400 0.577400 0.577400
vn 0.577400 -0.577400 -0.577400
vn 0.577400 -0.577400 0.577400
vn -0.577400 -0.577400 0.577300
vn -0.577400 -0.577300 -0.577400
vn -0.577400 0.577300 0.577400
vn -0.577400 0.577300 -0.577400
vn 0.000000 0.000000 -1.000000
vn -1.000000 0.000000 0.000000
vn 0.000000 1.000000 0.000000
vn 0.000000 -1.000000 -0.000000
vn 0.000000 -0.000000 1.000000
vn 1.000000 0.000000 0.000000
s off
f 1/1/1 2/2/1 3/3/1
f 4/4/2 6/5/2 5/6/2
f 7/7/3 9/8/3 8/9/3
f 10/10/4 11/11/4 12/12/4
f 13/13/5 15/14/5 14/15/5
f 16/16/6 17/17/6 18/18/6
f 19/19/7 21/20/7 20/21/7
f 22/22/8 24/23/8 23/24/8
f 17/17/9 22/22/9 23/24/9 2/2/9 1/1/9 8/9/9 9/8/9 18/18/9
f 24/25/10 22/26/10 17/27/10 16/28/10 13/29/10 14/30/10 19/31/10 20/32/10
f 23/33/11 24/34/11 20/35/11 21/36/11 5/37/11 6/38/11 3/39/11 2/40/11
f 9/41/12 7/42/12 12/43/12 11/44/12 15/45/12 13/46/12 16/47/12 18/48/12
f 19/19/13 14/15/13 15/14/13 11/11/13 10/10/13 4/4/13 5/6/13 21/20/13
f 6/49/14 4/50/14 10/51/14 12/52/14 7/53/14 8/54/14 1/55/14 3/56/14
